<?xml version="1.0" standalone="no"?>
<!DOCTYPE svg PUBLIC "-//W3C//DTD SVG 20010904//EN"
 "http://www.w3.org/TR/2001/REC-SVG-20010904/DTD/svg10.dtd">
<svg version="1.0" xmlns="http://www.w3.org/2000/svg"
 width="500.000000pt" height="500.000000pt" viewBox="0 0 500.000000 500.000000"
 preserveAspectRatio="xMidYMid meet">
<metadata>
Created by potrace 1.14, written by Peter Selinger 2001-2017
</metadata>
<g transform="translate(0.000000,500.000000) scale(0.100000,-0.100000)"
fill="#000000" stroke="none">
<path d="M2815 4124 c-207 -44 -505 -178 -533 -240 -41 -89 -61 -451 -62
-1084 0 -540 24 -851 73 -950 21 -43 25 -46 102 -69 70 -21 102 -24 255 -25
187 -1 269 11 411 59 223 76 401 233 476 419 34 84 43 270 18 366 -43 166
-153 292 -289 330 -25 7 -46 16 -46 20 0 4 17 20 38 36 107 81 218 218 272
338 62 138 81 342 42 463 -54 170 -197 293 -389 337 -90 20 -272 20 -368 0z
m238 -582 c86 -86 -89 -395 -250 -441 -53 -15 -58 -4 -55 124 3 172 17 255 47
285 40 40 102 60 173 57 49 -2 67 -8 85 -25z m-47 -892 c90 -31 70 -157 -41
-259 -53 -49 -145 -94 -184 -89 -22 3 -27 10 -33 46 -8 49 6 230 19 243 4 4
33 22 63 38 59 33 121 40 176 21z"/>
<path d="M1720 4081 c-78 -24 -132 -75 -151 -143 -34 -130 118 -203 267 -128
71 35 101 64 119 115 24 71 -7 136 -74 155 -41 11 -124 12 -161 1z"/>
<path d="M1720 3568 c-111 -32 -175 -150 -223 -413 -20 -110 -22 -153 -22
-505 0 -425 11 -545 61 -691 31 -89 88 -163 132 -172 50 -10 114 11 155 51 49
47 81 110 107 209 33 130 39 194 52 573 17 540 -5 738 -100 893 -32 52 -96 74
-162 55z"/>
<path d="M2344 736 c-43 -19 -64 -53 -64 -101 0 -48 22 -74 98 -115 30 -16 48
-33 50 -47 6 -44 -59 -52 -117 -15 -22 15 -24 14 -42 -9 -28 -36 -23 -54 19
-72 58 -25 93 -28 147 -15 38 10 55 21 72 47 46 68 17 129 -88 182 -42 21 -59
35 -59 49 0 31 52 38 113 15 16 -7 43 47 33 64 -8 13 -72 31 -106 31 -14 -1
-39 -7 -56 -14z"/>
<path d="M4405 736 c-137 -60 -153 -263 -28 -350 75 -52 193 -33 248 42 12 16
21 48 23 84 l4 58 -86 0 -86 0 0 -30 c0 -28 2 -30 40 -30 32 0 40 -4 40 -18 0
-24 -27 -48 -61 -57 -37 -9 -83 17 -103 59 -20 42 -20 67 -2 110 27 65 98 86
151 45 l27 -22 24 29 24 29 -31 26 c-46 40 -125 51 -184 25z"/>
<path d="M360 550 l0 -190 45 0 45 0 0 190 0 190 -45 0 -45 0 0 -190z"/>
<path d="M590 549 l0 -191 104 4 c100 3 106 4 135 32 26 25 31 37 31 77 0 41
-4 51 -31 72 -31 24 -31 25 -15 55 24 46 20 80 -13 113 -28 28 -33 29 -120 29
l-91 0 0 -191z m140 111 c22 -22 18 -45 -11 -61 -28 -15 -39 -3 -39 42 0 45
17 52 50 19z m21 -150 c21 -12 25 -50 7 -68 -7 -7 -27 -12 -45 -12 -32 0 -33
1 -33 45 0 42 2 45 26 45 14 0 34 -5 45 -10z"/>
<path d="M1097 728 c-7 -18 -138 -340 -144 -356 -4 -10 6 -12 42 -10 45 3 49
5 60 38 l12 35 76 3 76 3 11 -41 c11 -39 12 -40 55 -40 25 0 45 3 45 8 0 4
-33 89 -72 189 l-73 183 -41 0 c-24 0 -44 -5 -47 -12z m79 -192 c6 -24 4 -26
-29 -26 -20 0 -38 3 -41 8 -2 4 5 30 17 57 l21 49 13 -31 c6 -17 15 -42 19
-57z"/>
<path d="M1440 550 l0 -190 86 0 c133 0 177 29 176 114 -1 34 -6 46 -33 68
-31 26 -32 28 -16 46 10 11 17 35 17 58 -1 72 -36 94 -149 94 l-81 0 0 -190z
m142 106 c4 -6 8 -17 8 -23 0 -17 -46 -46 -60 -38 -11 7 -14 68 -3 78 9 9 46
-2 55 -17z m9 -146 c24 -13 26 -65 3 -74 -9 -3 -29 -6 -45 -6 -28 0 -29 2 -29
45 0 42 2 45 26 45 14 0 34 -5 45 -10z"/>
<path d="M1800 735 c0 -3 29 -49 65 -104 l65 -98 0 -87 0 -86 45 0 45 0 0 89
0 89 65 96 c36 53 65 98 65 101 0 3 -22 5 -49 5 -47 0 -49 -1 -85 -55 -20 -30
-40 -55 -44 -55 -4 0 -22 25 -41 55 -33 54 -34 55 -82 55 -27 0 -49 -2 -49 -5z"/>
<path d="M2660 550 l0 -190 40 0 40 0 0 190 0 190 -40 0 -40 0 0 -190z"/>
<path d="M2860 705 c0 -35 0 -35 45 -35 l45 0 0 -155 0 -155 45 0 45 0 0 155
0 155 45 0 c45 0 45 0 45 35 l0 35 -135 0 -135 0 0 -35z"/>
<path d="M3220 705 c0 -35 0 -35 45 -35 l45 0 0 -155 0 -155 45 0 45 0 0 155
0 155 45 0 c45 0 45 0 45 35 l0 35 -135 0 -135 0 0 -35z"/>
<path d="M3610 550 l0 -190 40 0 40 0 0 190 0 190 -40 0 -40 0 0 -190z"/>
<path d="M3840 550 l0 -190 40 0 40 0 0 110 c0 61 4 110 9 110 4 0 39 -49 77
-110 l69 -109 43 -1 42 0 0 190 0 190 -40 0 -40 0 0 -110 c0 -60 -3 -110 -7
-110 -8 1 -78 104 -123 183 -20 34 -26 37 -66 37 l-44 0 0 -190z"/>
</g>
</svg>
